<svg width="81" height="82" viewBox="0 0 81 82" fill="none" xmlns="http://www.w3.org/2000/svg">
<g filter="url(#filter0_d_321_8574)">
<mask id="path-1-inside-1_321_8574" fill="white">
<path d="M45.5652 1C52.092 1 58.4722 2.93542 63.8991 6.5615C69.3259 10.1876 73.5556 15.3415 76.0533 21.3714C78.5509 27.4014 79.2045 34.0366 77.9311 40.438C76.6578 46.8393 73.5149 52.7194 68.8998 57.3345C64.2846 61.9496 58.4046 65.0926 52.0032 66.3659C45.6018 67.6392 38.9667 66.9857 32.9367 64.488C26.9067 61.9903 21.7528 57.7606 18.1267 52.3338C14.5007 46.907 12.5652 40.5268 12.5652 34C12.5652 25.2479 16.042 16.8542 22.2307 10.6655C28.4194 4.47677 36.8131 1 45.5652 1Z"/>
</mask>
<path d="M45.5652 1C52.092 1 58.4722 2.93542 63.8991 6.5615C69.3259 10.1876 73.5556 15.3415 76.0533 21.3714C78.5509 27.4014 79.2045 34.0366 77.9311 40.438C76.6578 46.8393 73.5149 52.7194 68.8998 57.3345C64.2846 61.9496 58.4046 65.0926 52.0032 66.3659C45.6018 67.6392 38.9667 66.9857 32.9367 64.488C26.9067 61.9903 21.7528 57.7606 18.1267 52.3338C14.5007 46.907 12.5652 40.5268 12.5652 34C12.5652 25.2479 16.042 16.8542 22.2307 10.6655C28.4194 4.47677 36.8131 1 45.5652 1Z" fill="#FC4308" fill-opacity="0.1" shape-rendering="crispEdges"/>
<path d="M12.5652 34H11.8261H12.5652ZM45.5652 1.73913C51.9458 1.73913 58.1831 3.6312 63.4884 7.17607L64.3097 5.94694C58.7613 2.23963 52.2382 0.26087 45.5652 0.26087V1.73913ZM63.4884 7.17607C68.7937 10.7209 72.9286 15.7594 75.3704 21.6543L76.7361 21.0886C74.1825 14.9236 69.8581 9.65424 64.3097 5.94694L63.4884 7.17607ZM75.3704 21.6543C77.8121 27.5492 78.451 34.0358 77.2062 40.2938L78.6561 40.5822C79.9579 34.0374 79.2898 27.2536 76.7361 21.0886L75.3704 21.6543ZM77.2062 40.2938C75.9614 46.5518 72.8889 52.3001 68.3771 56.8119L69.4224 57.8572C74.1409 53.1387 77.3542 47.1269 78.6561 40.5822L77.2062 40.2938ZM68.3771 56.8119C63.8654 61.3236 58.117 64.3962 51.859 65.641L52.1474 67.0908C58.6922 65.789 64.7039 62.5757 69.4224 57.8572L68.3771 56.8119ZM51.859 65.641C45.601 66.8858 39.1144 66.2469 33.2195 63.8051L32.6538 65.1709C38.8189 67.7245 45.6027 68.3927 52.1474 67.0908L51.859 65.641ZM33.2195 63.8051C27.3246 61.3634 22.2862 57.2284 18.7413 51.9232L17.5122 52.7444C21.2195 58.2928 26.4888 62.6172 32.6538 65.1709L33.2195 63.8051ZM18.7413 51.9232C15.1964 46.6179 13.3044 40.3806 13.3044 34H11.8261C11.8261 40.673 13.8049 47.1961 17.5122 52.7444L18.7413 51.9232ZM13.3044 34C13.3044 25.4439 16.7033 17.2382 22.7534 11.1881L21.7081 10.1428C15.3808 16.4701 11.8261 25.0518 11.8261 34H13.3044ZM22.7534 11.1881C28.8035 5.13803 37.0091 1.73913 45.5652 1.73913V0.26087C36.6171 0.26087 28.0354 3.81552 21.7081 10.1428L22.7534 11.1881Z" fill="#FC4308" mask="url(#path-1-inside-1_321_8574)"/>
</g>
<path d="M55.0148 35.6134C56.0004 35.0444 56.0004 33.6219 55.0148 33.053L42.4496 25.7984C41.4641 25.2294 40.2322 25.9407 40.2322 27.0786L40.2322 41.5877C40.2322 42.7257 41.4641 43.4369 42.4496 42.8679L55.0148 35.6134Z" fill="#FC4308"/>
<defs>
<filter id="filter0_d_321_8574" x="2.95639e-05" y="0.26087" width="80.7826" height="80.7826" filterUnits="userSpaceOnUse" color-interpolation-filters="sRGB">
<feFlood flood-opacity="0" result="BackgroundImageFix"/>
<feColorMatrix in="SourceAlpha" type="matrix" values="0 0 0 0 0 0 0 0 0 0 0 0 0 0 0 0 0 0 127 0" result="hardAlpha"/>
<feOffset dx="-5.17391" dy="6.65217"/>
<feGaussianBlur stdDeviation="3.69565"/>
<feComposite in2="hardAlpha" operator="out"/>
<feColorMatrix type="matrix" values="0 0 0 0 0 0 0 0 0 0 0 0 0 0 0 0 0 0 0.05 0"/>
<feBlend mode="normal" in2="BackgroundImageFix" result="effect1_dropShadow_321_8574"/>
<feBlend mode="normal" in="SourceGraphic" in2="effect1_dropShadow_321_8574" result="shape"/>
</filter>
</defs>
</svg>
