<svg width="42" height="18" viewBox="0 0 42 18" fill="none" xmlns="http://www.w3.org/2000/svg">
<path d="M18.1173 17.4216C18.0938 17.4138 18.0713 17.4029 18.0491 17.3895L12.6416 14.0289C12.6367 14.0254 12.6314 14.0222 12.6272 14.0198C12.6213 14.0173 12.6163 14.0138 12.6104 14.0106L12.6026 14.0057L6.90373 14.0627C6.79617 14.0634 6.70055 14.0138 6.63834 13.9355C6.61549 13.9289 6.59299 13.9204 6.5712 13.9088C6.5385 13.8912 6.51003 13.8693 6.48542 13.8432C6.46363 13.8365 6.44254 13.8274 6.4225 13.8165L4.45784 12.7228C4.44518 12.7168 4.43358 12.7101 4.42093 12.7027L4.41425 12.6985L0.233943 10.3724C0.201954 10.3548 0.17348 10.3319 0.149929 10.3058C-0.00192953 10.2047 -0.0458717 10.0003 0.0525593 9.84598C1.03687 8.29539 2.45736 7.00294 4.16042 6.10809C5.80238 5.24522 7.70558 4.75196 9.73243 4.75196C10.6773 4.75196 11.5955 4.85872 12.4722 5.06096C12.4781 5.02291 12.4915 4.98521 12.5115 4.94997C13.3657 3.44655 14.6062 2.19118 16.0971 1.32158C17.5377 0.48126 19.2116 0 20.9963 0C22.7711 0 24.4366 0.47565 25.8719 1.30751C27.3567 2.16792 28.5948 3.40957 29.4532 4.90064L29.4539 4.9031C30.3535 4.68994 31.296 4.57649 32.2676 4.57649C34.2951 4.57649 36.1983 5.06976 37.8396 5.93261C39.5431 6.82755 40.9632 8.11955 41.9474 9.67051C42.0459 9.82554 42.0019 10.0299 41.8501 10.1303C41.8265 10.1564 41.798 10.1782 41.7661 10.1969L37.5858 12.523L37.5791 12.5272C37.5675 12.535 37.5548 12.5417 37.5422 12.5473L35.5775 13.641C35.5575 13.6526 35.5357 13.6611 35.5146 13.6678C35.4903 13.6938 35.4615 13.7157 35.4288 13.7333C35.3726 13.7636 35.3121 13.7763 35.2523 13.7728L29.4276 13.8316C29.4058 13.8721 29.3745 13.908 29.3362 13.9376C29.3133 13.9644 29.2866 13.988 29.2546 14.0074L25.6146 16.2409C25.6079 16.2451 25.602 16.2493 25.5953 16.2525L23.8777 17.3057C23.8601 17.3166 23.8426 17.325 23.8239 17.3324C23.7962 17.3627 23.7635 17.3881 23.7248 17.4064C23.5585 17.4882 23.3585 17.4191 23.277 17.2525C23.0653 16.8187 22.7342 16.4527 22.3261 16.1976C21.9331 15.9517 21.467 15.8097 20.9678 15.8097C20.4571 15.8097 19.9825 15.958 19.5853 16.2128C19.1737 16.4763 18.8429 16.8551 18.6355 17.3046C18.5581 17.473 18.3592 17.547 18.1904 17.4688C18.1627 17.4561 18.1374 17.4403 18.1149 17.4209L18.1173 17.4216ZM13.2719 13.6308L14.5124 14.4021C15.161 13.3454 16.0594 12.4608 17.1246 11.8311C18.2526 11.1645 19.568 10.7815 20.9706 10.7815C22.3633 10.7815 23.6685 11.1578 24.7896 11.8152C25.8512 12.4374 26.75 13.312 27.4017 14.3583L28.6868 13.5705C27.8973 12.3028 26.8048 11.2426 25.5105 10.4929C24.1757 9.7202 22.6255 9.27728 20.9709 9.27728C19.3061 9.27728 17.7475 9.72509 16.4078 10.5062C15.1262 11.2539 14.0435 12.3059 13.2589 13.5645C13.2655 13.5856 13.2705 13.6075 13.2733 13.6311L13.2719 13.6308ZM15.0812 14.7548L16.3604 15.5497C16.8131 14.8097 17.4382 14.1858 18.1795 13.7372C18.9951 13.2429 19.9502 12.9593 20.9713 12.9593V12.961C21.9615 12.955 22.8948 13.2288 23.7019 13.7111C24.4384 14.1516 25.0701 14.765 25.5447 15.4992L26.833 14.7086C26.2399 13.7597 25.4219 12.9642 24.4528 12.3969C23.4306 11.7983 22.2414 11.4558 20.9724 11.4558C19.6924 11.4558 18.4945 11.8042 17.4683 12.4106C16.4939 12.9863 15.6735 13.7939 15.0829 14.7561L15.0812 14.7548ZM16.9298 15.9037L18.2041 16.6958C18.4611 16.2733 18.8122 15.9146 19.2288 15.6476C19.7329 15.3241 20.3308 15.1367 20.9706 15.1367C21.5987 15.1367 22.1858 15.3167 22.6832 15.6275C23.0906 15.8826 23.4375 16.2251 23.697 16.6309L24.9727 15.8481C24.5544 15.2064 24.0011 14.6702 23.3575 14.2855C22.652 13.8637 21.8371 13.6245 20.972 13.6305L20.9702 13.6322C20.0749 13.6322 19.2383 13.8806 18.5243 14.3133C17.8733 14.7072 17.3249 15.2544 16.9284 15.9034L16.9298 15.9037ZM7.2775 13.3884L12.1489 13.3394C11.9338 13.0783 11.6677 12.8528 11.3629 12.6759C10.8943 12.4032 10.3347 12.245 9.73257 12.245C9.14201 12.245 8.59366 12.3965 8.13102 12.6594C7.79601 12.8497 7.50531 13.0981 7.27682 13.3884L7.2775 13.3884ZM29.8605 13.1562L34.6388 13.1083C34.4254 12.8623 34.1649 12.6513 33.8711 12.4846C33.4081 12.2221 32.8598 12.0703 32.2695 12.0703C31.6674 12.0703 31.1088 12.2285 30.6392 12.5012C30.3376 12.6763 30.0739 12.8986 29.8598 13.1569L29.8605 13.1562ZM0.806316 9.92178L2.35271 10.7822C3.10285 9.67581 4.14333 8.75093 5.37718 8.09492C6.6581 7.41455 8.14644 7.0249 9.7336 7.0249C11.0329 7.0249 12.2666 7.28668 13.3764 7.75635C14.5111 8.23623 15.5116 8.93244 16.3151 9.78616C16.8484 9.49583 17.4112 9.25344 17.9982 9.06458C17.0533 7.97517 15.8521 7.07779 14.4766 6.4464C13.053 5.79317 11.4419 5.42428 9.73351 5.42428C7.8142 5.42428 6.01683 5.88901 4.47053 6.70148C2.97724 7.48613 1.71639 8.59492 0.805236 9.92074L0.806316 9.92178ZM2.94214 11.1106L4.49168 11.9728C5.03935 11.1906 5.77332 10.5384 6.63173 10.0726C7.54882 9.57585 8.60872 9.29398 9.73432 9.29997V9.29821C10.6556 9.29821 11.5327 9.48424 12.3212 9.81755C13.0998 10.1466 13.7909 10.6198 14.3519 11.1984C14.7762 10.8062 15.2346 10.4507 15.7224 10.1375C15.0001 9.39934 14.1139 8.79651 13.117 8.37474C12.0915 7.94102 10.9449 7.69861 9.73387 7.69861C8.25749 7.69861 6.8756 8.05975 5.68962 8.69043C4.57177 9.28376 3.62759 10.1166 2.94142 11.1106L2.94214 11.1106ZM5.08147 12.3011L6.6176 13.1555C6.91745 12.7179 7.32311 12.3473 7.80259 12.0752C8.36538 11.756 9.02727 11.5717 9.73423 11.5717C10.4566 11.5717 11.1309 11.7638 11.7003 12.0946C12.1302 12.3448 12.5 12.6746 12.7848 13.0611C13.1064 12.5653 13.4717 12.0996 13.8759 11.6711C13.3754 11.1535 12.7581 10.7307 12.0617 10.4362C11.3569 10.1382 10.5684 9.9715 9.73432 9.9715L9.73256 9.96974C8.72368 9.96375 7.77213 10.2171 6.94818 10.6635C6.2033 11.0666 5.56386 11.6292 5.08124 12.3001L5.08147 12.3011ZM15.1793 6.0429C15.6303 6.27263 16.063 6.53018 16.4729 6.81417C16.9432 6.09258 17.5815 5.49006 18.3317 5.06234C19.1195 4.61346 20.0299 4.35697 20.9984 4.35697V4.35873C21.9165 4.3538 22.7848 4.58845 23.55 5.00703C24.296 5.41538 24.9428 5.99776 25.4405 6.70176C25.8504 6.41284 26.2821 6.15035 26.7349 5.91463C26.1165 4.99434 25.2845 4.23082 24.3094 3.69631C23.3276 3.15829 22.1996 2.85281 20.9984 2.85281C19.7543 2.85281 18.588 3.18118 17.5815 3.75623C16.6082 4.31257 15.7825 5.09973 15.1785 6.04257L15.1793 6.0429ZM17.0135 7.21124C17.4185 7.52763 17.7981 7.87116 18.1489 8.23652C18.4108 7.7517 18.7933 7.34158 19.2559 7.04455C19.76 6.72111 20.3579 6.53366 20.9976 6.53366C21.6258 6.53366 22.2129 6.7137 22.7102 7.02446C23.1511 7.30069 23.5216 7.68016 23.787 8.13083C24.1322 7.76475 24.5051 7.42123 24.903 7.10303C24.4629 6.4741 23.8899 5.95544 23.229 5.59429C22.5604 5.22821 21.8012 5.0228 20.999 5.02773L20.9972 5.02949C20.1466 5.02949 19.3493 5.25358 18.6614 5.64573C17.9935 6.02626 17.4268 6.56493 17.0128 7.21084L17.0135 7.21124ZM18.6252 8.76859C18.653 8.80136 18.6797 8.83519 18.7075 8.86796C19.4341 8.69461 20.1916 8.6037 20.9703 8.6037C21.7254 8.6037 22.4604 8.68967 23.1666 8.8528C23.2155 8.79044 23.265 8.72913 23.3153 8.66747C23.3118 8.66254 23.3093 8.65655 23.3068 8.65162C23.0952 8.21789 22.7641 7.85182 22.356 7.59675C21.963 7.35082 21.4969 7.20883 20.9977 7.20883C20.4869 7.20883 20.0124 7.35716 19.6152 7.61191C19.2036 7.87546 18.8728 8.25422 18.6653 8.70375C18.6544 8.72736 18.6411 8.74991 18.6249 8.76929L18.6252 8.76859ZM13.1246 5.2304C13.6217 5.37451 14.1032 5.54962 14.5676 5.75327C15.2337 4.68677 16.1568 3.79678 17.2504 3.17135C18.3566 2.53926 19.6358 2.17809 20.998 2.17809C22.3117 2.17809 23.5497 2.51493 24.6289 3.10578C25.7274 3.70757 26.6607 4.57393 27.3434 5.61797C27.807 5.41009 28.2883 5.23075 28.7847 5.08172C27.9909 3.76257 26.8713 2.66153 25.5376 1.88853C24.2029 1.11586 22.6527 0.67293 20.9981 0.67293C19.3333 0.67293 17.7747 1.12074 16.435 1.90188C15.0633 2.70168 13.9195 3.85169 13.1251 5.22901L13.1246 5.2304ZM35.3863 12.9804L36.9225 12.126C36.4395 11.4551 35.7994 10.8935 35.0555 10.4893C34.2316 10.0433 33.2807 9.78959 32.2711 9.79558L32.2694 9.79734C31.3867 9.79734 30.5536 9.98513 29.8161 10.3177C29.118 10.6327 28.5049 11.0781 28.0152 11.6186C28.4268 12.0488 28.7998 12.5177 29.1281 13.0177C29.423 12.5748 29.8262 12.1985 30.3039 11.9209C30.8734 11.5901 31.5479 11.398 32.27 11.398C32.9773 11.398 33.6399 11.5823 34.2017 11.9015C34.6811 12.1735 35.0868 12.5438 35.3866 12.9818L35.3863 12.9804ZM37.512 11.7976L39.0615 10.9355C38.3754 9.9412 37.4312 9.10859 36.3133 8.51526C35.1273 7.88458 33.7447 7.52345 32.2691 7.52345C30.9899 7.52345 29.782 7.79439 28.712 8.27604C27.726 8.71964 26.8549 9.34254 26.1519 10.0962C26.6433 10.4059 27.106 10.7579 27.5334 11.1487C28.0818 10.5483 28.7649 10.0543 29.5392 9.70478C30.3625 9.33271 31.2894 9.12378 32.2681 9.12378V9.12554C33.3937 9.11955 34.4535 9.40177 35.3707 9.89821C36.2291 10.3629 36.9631 11.0162 37.5107 11.7983L37.512 11.7976ZM39.6503 10.6081L41.1967 9.74768C40.2856 8.42186 39.0246 7.31306 37.5314 6.52843C35.985 5.71594 34.1878 5.25123 32.2684 5.25123C30.4965 5.25123 28.8291 5.6469 27.3675 6.34731C25.9952 7.00406 24.8024 7.92929 23.8734 9.04549C24.4604 9.22906 25.025 9.46654 25.5589 9.75263C26.3407 8.88201 27.3218 8.16641 28.4382 7.664C29.5948 7.14361 30.895 6.85081 32.2681 6.85081C33.8556 6.85081 35.3439 7.2405 36.6245 7.92083C37.8584 8.57653 38.8988 9.50173 39.649 10.6081L39.6503 10.6081Z" fill="#FC4308"/>
</svg>
