<svg width="203" height="21" viewBox="0 0 203 21" fill="none" xmlns="http://www.w3.org/2000/svg">
<path d="M18.1173 18.6716C18.0938 18.6638 18.0713 18.6529 18.0491 18.6395L12.6416 15.2789C12.6367 15.2754 12.6314 15.2722 12.6272 15.2698C12.6213 15.2673 12.6163 15.2638 12.6104 15.2606L12.6026 15.2557L6.90373 15.3127C6.79617 15.3134 6.70055 15.2638 6.63834 15.1855C6.61549 15.1789 6.59299 15.1704 6.5712 15.1588C6.5385 15.1412 6.51003 15.1193 6.48542 15.0932C6.46363 15.0865 6.44254 15.0774 6.4225 15.0665L4.45784 13.9728C4.44518 13.9668 4.43358 13.9601 4.42093 13.9527L4.41425 13.9485L0.233943 11.6224C0.201954 11.6048 0.17348 11.5819 0.149929 11.5558C-0.00192953 11.4547 -0.0458717 11.2503 0.0525593 11.096C1.03687 9.54539 2.45736 8.25294 4.16042 7.35809C5.80238 6.49522 7.70558 6.00196 9.73243 6.00196C10.6773 6.00196 11.5955 6.10872 12.4722 6.31096C12.4781 6.27291 12.4915 6.23521 12.5115 6.19997C13.3657 4.69655 14.6062 3.44118 16.0971 2.57158C17.5377 1.73126 19.2116 1.25 20.9963 1.25C22.7711 1.25 24.4366 1.72565 25.8719 2.55751C27.3567 3.41792 28.5948 4.65957 29.4532 6.15064L29.4539 6.1531C30.3535 5.93994 31.296 5.82649 32.2676 5.82649C34.2951 5.82649 36.1983 6.31976 37.8396 7.18261C39.5431 8.07755 40.9632 9.36955 41.9474 10.9205C42.0459 11.0755 42.0019 11.2799 41.8501 11.3803C41.8265 11.4064 41.798 11.4282 41.7661 11.4469L37.5858 13.773L37.5791 13.7772C37.5675 13.785 37.5548 13.7917 37.5422 13.7973L35.5775 14.891C35.5575 14.9026 35.5357 14.9111 35.5146 14.9178C35.4903 14.9438 35.4615 14.9657 35.4288 14.9833C35.3726 15.0136 35.3121 15.0263 35.2523 15.0228L29.4276 15.0816C29.4058 15.1221 29.3745 15.158 29.3362 15.1876C29.3133 15.2144 29.2866 15.238 29.2546 15.2574L25.6146 17.4909C25.6079 17.4951 25.602 17.4993 25.5953 17.5025L23.8777 18.5557C23.8601 18.5666 23.8426 18.575 23.8239 18.5824C23.7962 18.6127 23.7635 18.6381 23.7248 18.6564C23.5585 18.7382 23.3585 18.6691 23.277 18.5025C23.0653 18.0687 22.7342 17.7027 22.3261 17.4476C21.9331 17.2017 21.467 17.0597 20.9678 17.0597C20.4571 17.0597 19.9825 17.208 19.5853 17.4628C19.1737 17.7263 18.8429 18.1051 18.6355 18.5546C18.5581 18.723 18.3592 18.797 18.1904 18.7188C18.1627 18.7061 18.1374 18.6903 18.1149 18.6709L18.1173 18.6716ZM13.2719 14.8808L14.5124 15.6521C15.161 14.5954 16.0594 13.7108 17.1246 13.0811C18.2526 12.4145 19.568 12.0315 20.9706 12.0315C22.3633 12.0315 23.6685 12.4078 24.7896 13.0652C25.8512 13.6874 26.75 14.562 27.4017 15.6083L28.6868 14.8205C27.8973 13.5528 26.8048 12.4926 25.5105 11.7429C24.1757 10.9702 22.6255 10.5273 20.9709 10.5273C19.3061 10.5273 17.7475 10.9751 16.4078 11.7562C15.1262 12.5039 14.0435 13.5559 13.2589 14.8145C13.2655 14.8356 13.2705 14.8575 13.2733 14.8811L13.2719 14.8808ZM15.0812 16.0048L16.3604 16.7997C16.8131 16.0597 17.4382 15.4358 18.1795 14.9872C18.9951 14.4929 19.9502 14.2093 20.9713 14.2093V14.211C21.9615 14.205 22.8948 14.4788 23.7019 14.9611C24.4384 15.4016 25.0701 16.015 25.5447 16.7492L26.833 15.9586C26.2399 15.0097 25.4219 14.2142 24.4528 13.6469C23.4306 13.0483 22.2414 12.7058 20.9724 12.7058C19.6924 12.7058 18.4945 13.0542 17.4683 13.6606C16.4939 14.2363 15.6735 15.0439 15.0829 16.0061L15.0812 16.0048ZM16.9298 17.1537L18.2041 17.9458C18.4611 17.5233 18.8122 17.1646 19.2288 16.8976C19.7329 16.5741 20.3308 16.3867 20.9706 16.3867C21.5987 16.3867 22.1858 16.5667 22.6832 16.8775C23.0906 17.1326 23.4375 17.4751 23.697 17.8809L24.9727 17.0981C24.5544 16.4564 24.0011 15.9202 23.3575 15.5355C22.652 15.1137 21.8371 14.8745 20.972 14.8805L20.9702 14.8822C20.0749 14.8822 19.2383 15.1306 18.5243 15.5633C17.8733 15.9572 17.3249 16.5044 16.9284 17.1534L16.9298 17.1537ZM7.2775 14.6384L12.1489 14.5894C11.9338 14.3283 11.6677 14.1028 11.3629 13.9259C10.8943 13.6532 10.3347 13.495 9.73257 13.495C9.14201 13.495 8.59366 13.6465 8.13102 13.9094C7.79601 14.0997 7.50531 14.3481 7.27682 14.6384L7.2775 14.6384ZM29.8605 14.4062L34.6388 14.3583C34.4254 14.1123 34.1649 13.9013 33.8711 13.7346C33.4081 13.4721 32.8598 13.3203 32.2695 13.3203C31.6674 13.3203 31.1088 13.4785 30.6392 13.7512C30.3376 13.9263 30.0739 14.1486 29.8598 14.4069L29.8605 14.4062ZM0.806316 11.1718L2.35271 12.0322C3.10285 10.9258 4.14333 10.0009 5.37718 9.34492C6.6581 8.66455 8.14644 8.2749 9.7336 8.2749C11.0329 8.2749 12.2666 8.53668 13.3764 9.00635C14.5111 9.48623 15.5116 10.1824 16.3151 11.0362C16.8484 10.7458 17.4112 10.5034 17.9982 10.3146C17.0533 9.22517 15.8521 8.32779 14.4766 7.6964C13.053 7.04317 11.4419 6.67428 9.73351 6.67428C7.8142 6.67428 6.01683 7.13901 4.47053 7.95148C2.97724 8.73613 1.71639 9.84492 0.805236 11.1707L0.806316 11.1718ZM2.94214 12.3606L4.49168 13.2228C5.03935 12.4406 5.77332 11.7884 6.63173 11.3226C7.54882 10.8258 8.60872 10.544 9.73432 10.55V10.5482C10.6556 10.5482 11.5327 10.7342 12.3212 11.0675C13.0998 11.3966 13.7909 11.8698 14.3519 12.4484C14.7762 12.0562 15.2346 11.7007 15.7224 11.3875C15.0001 10.6493 14.1139 10.0465 13.117 9.62474C12.0915 9.19102 10.9449 8.94861 9.73387 8.94861C8.25749 8.94861 6.8756 9.30975 5.68962 9.94043C4.57177 10.5338 3.62759 11.3666 2.94142 12.3606L2.94214 12.3606ZM5.08147 13.5511L6.6176 14.4055C6.91745 13.9679 7.32311 13.5973 7.80259 13.3252C8.36538 13.006 9.02727 12.8217 9.73423 12.8217C10.4566 12.8217 11.1309 13.0138 11.7003 13.3446C12.1302 13.5948 12.5 13.9246 12.7848 14.3111C13.1064 13.8153 13.4717 13.3496 13.8759 12.9211C13.3754 12.4035 12.7581 11.9807 12.0617 11.6862C11.3569 11.3882 10.5684 11.2215 9.73432 11.2215L9.73256 11.2197C8.72368 11.2137 7.77213 11.4671 6.94818 11.9135C6.2033 12.3166 5.56386 12.8792 5.08124 13.5501L5.08147 13.5511ZM15.1793 7.2929C15.6303 7.52263 16.063 7.78018 16.4729 8.06417C16.9432 7.34258 17.5815 6.74006 18.3317 6.31234C19.1195 5.86346 20.0299 5.60697 20.9984 5.60697V5.60873C21.9165 5.6038 22.7848 5.83845 23.55 6.25703C24.296 6.66538 24.9428 7.24776 25.4405 7.95176C25.8504 7.66284 26.2821 7.40035 26.7349 7.16463C26.1165 6.24434 25.2845 5.48082 24.3094 4.94631C23.3276 4.40829 22.1996 4.10281 20.9984 4.10281C19.7543 4.10281 18.588 4.43118 17.5815 5.00623C16.6082 5.56257 15.7825 6.34973 15.1785 7.29257L15.1793 7.2929ZM17.0135 8.46124C17.4185 8.77763 17.7981 9.12116 18.1489 9.48652C18.4108 9.0017 18.7933 8.59158 19.2559 8.29455C19.76 7.97111 20.3579 7.78366 20.9976 7.78366C21.6258 7.78366 22.2129 7.9637 22.7102 8.27446C23.1511 8.55069 23.5216 8.93016 23.787 9.38083C24.1322 9.01475 24.5051 8.67123 24.903 8.35303C24.4629 7.7241 23.8899 7.20544 23.229 6.84429C22.5604 6.47821 21.8012 6.2728 20.999 6.27773L20.9972 6.27949C20.1466 6.27949 19.3493 6.50358 18.6614 6.89573C17.9935 7.27626 17.4268 7.81493 17.0128 8.46084L17.0135 8.46124ZM18.6252 10.0186C18.653 10.0514 18.6797 10.0852 18.7075 10.118C19.4341 9.94461 20.1916 9.8537 20.9703 9.8537C21.7254 9.8537 22.4604 9.93967 23.1666 10.1028C23.2155 10.0404 23.265 9.97913 23.3153 9.91747C23.3118 9.91254 23.3093 9.90655 23.3068 9.90162C23.0952 9.46789 22.7641 9.10182 22.356 8.84675C21.963 8.60082 21.4969 8.45883 20.9977 8.45883C20.4869 8.45883 20.0124 8.60716 19.6152 8.86191C19.2036 9.12546 18.8728 9.50422 18.6653 9.95375C18.6544 9.97736 18.6411 9.99991 18.6249 10.0193L18.6252 10.0186ZM13.1246 6.4804C13.6217 6.62451 14.1032 6.79962 14.5676 7.00327C15.2337 5.93677 16.1568 5.04678 17.2504 4.42135C18.3566 3.78926 19.6358 3.42809 20.998 3.42809C22.3117 3.42809 23.5497 3.76493 24.6289 4.35578C25.7274 4.95757 26.6607 5.82393 27.3434 6.86797C27.807 6.66009 28.2883 6.48075 28.7847 6.33172C27.9909 5.01257 26.8713 3.91153 25.5376 3.13853C24.2029 2.36586 22.6527 1.92293 20.9981 1.92293C19.3333 1.92293 17.7747 2.37074 16.435 3.15188C15.0633 3.95168 13.9195 5.10169 13.1251 6.47901L13.1246 6.4804ZM35.3863 14.2304L36.9225 13.376C36.4395 12.7051 35.7994 12.1435 35.0555 11.7393C34.2316 11.2933 33.2807 11.0396 32.2711 11.0456L32.2694 11.0473C31.3867 11.0473 30.5536 11.2351 29.8161 11.5677C29.118 11.8827 28.5049 12.3281 28.0152 12.8686C28.4268 13.2988 28.7998 13.7677 29.1281 14.2677C29.423 13.8248 29.8262 13.4485 30.3039 13.1709C30.8734 12.8401 31.5479 12.648 32.27 12.648C32.9773 12.648 33.6399 12.8323 34.2017 13.1515C34.6811 13.4235 35.0868 13.7938 35.3866 14.2318L35.3863 14.2304ZM37.512 13.0476L39.0615 12.1855C38.3754 11.1912 37.4312 10.3586 36.3133 9.76526C35.1273 9.13458 33.7447 8.77345 32.2691 8.77345C30.9899 8.77345 29.782 9.04439 28.712 9.52604C27.726 9.96964 26.8549 10.5925 26.1519 11.3462C26.6433 11.6559 27.106 12.0079 27.5334 12.3987C28.0818 11.7983 28.7649 11.3043 29.5392 10.9548C30.3625 10.5827 31.2894 10.3738 32.2681 10.3738V10.3755C33.3937 10.3695 34.4535 10.6518 35.3707 11.1482C36.2291 11.6129 36.9631 12.2662 37.5107 13.0483L37.512 13.0476ZM39.6503 11.8581L41.1967 10.9977C40.2856 9.67186 39.0246 8.56306 37.5314 7.77843C35.985 6.96594 34.1878 6.50123 32.2684 6.50123C30.4965 6.50123 28.8291 6.8969 27.3675 7.59731C25.9952 8.25406 24.8024 9.17929 23.8734 10.2955C24.4604 10.4791 25.025 10.7165 25.5589 11.0026C26.3407 10.132 27.3218 9.41641 28.4382 8.914C29.5948 8.39361 30.895 8.10081 32.2681 8.10081C33.8556 8.10081 35.3439 8.4905 36.6245 9.17083C37.8584 9.82653 38.8988 10.7517 39.649 11.8581L39.6503 11.8581Z" fill="#FC4308"/>
<path d="M60.36 17.16C62.54 17.16 64.42 16.4 65.7 14.96L64.4 13.7C63.32 14.84 62 15.38 60.46 15.38C57.3 15.38 54.96 13.1 54.96 10C54.96 6.9 57.3 4.62 60.46 4.62C62 4.62 63.32 5.14 64.4 6.28L65.7 5.02C64.42 3.58 62.54 2.84 60.38 2.84C56.12 2.84 52.96 5.86 52.96 10C52.96 14.14 56.12 17.16 60.36 17.16ZM71.7496 6.3C70.0496 6.3 68.4696 6.78 67.3696 7.66L68.1696 9.1C68.9896 8.4 70.2696 7.96 71.5296 7.96C73.4296 7.96 74.3696 8.9 74.3696 10.52V10.9H71.3296C68.1696 10.9 67.0696 12.3 67.0696 14C67.0696 15.84 68.5896 17.12 70.9896 17.12C72.6496 17.12 73.8296 16.56 74.4696 15.6V17H76.2896V10.6C76.2896 7.7 74.6496 6.3 71.7496 6.3ZM71.3096 15.64C69.8496 15.64 68.9696 14.98 68.9696 13.92C68.9696 13.02 69.5096 12.28 71.4096 12.28H74.3696V13.76C73.8896 14.98 72.7496 15.64 71.3096 15.64ZM85.2159 6.3C83.6559 6.3 82.2959 6.9 81.4359 8.08V6.4H79.5959V20.88H81.5159V15.4C82.3959 16.54 83.7159 17.12 85.2159 17.12C88.3159 17.12 90.5759 14.96 90.5759 11.7C90.5759 8.46 88.3159 6.3 85.2159 6.3ZM85.0559 15.44C83.0359 15.44 81.4959 13.96 81.4959 11.7C81.4959 9.46 83.0359 7.98 85.0559 7.98C87.0959 7.98 88.6359 9.46 88.6359 11.7C88.6359 13.96 87.0959 15.44 85.0559 15.44ZM98.3418 15C97.9418 15.32 97.4018 15.5 96.8418 15.5C95.7818 15.5 95.1818 14.86 95.1818 13.72V7.98H98.2218V6.4H95.1818V4.08H93.2618V6.4H91.4618V7.98H93.2618V13.8C93.2618 15.94 94.4818 17.12 96.6218 17.12C97.4818 17.12 98.3618 16.88 98.9418 16.38L98.3418 15ZM108.976 6.4V11.88C108.976 14.16 107.696 15.4 105.696 15.4C103.876 15.4 102.836 14.36 102.836 12.28V6.4H100.916V12.5C100.916 15.62 102.736 17.12 105.476 17.12C106.976 17.12 108.296 16.5 109.076 15.4V17H110.896V6.4H108.976ZM116.145 8.18V6.4H114.305V17H116.225V11.72C116.225 9.4 117.505 8.14 119.565 8.14C119.705 8.14 119.845 8.14 120.005 8.16V6.3C118.145 6.3 116.825 6.94 116.145 8.18ZM131.606 11.76C131.606 8.5 129.426 6.3 126.366 6.3C123.306 6.3 121.046 8.56 121.046 11.7C121.046 14.86 123.326 17.12 126.746 17.12C128.506 17.12 129.966 16.52 130.926 15.4L129.866 14.16C129.086 15.02 128.046 15.44 126.806 15.44C124.706 15.44 123.206 14.2 122.966 12.34H131.566C131.586 12.16 131.606 11.92 131.606 11.76ZM126.366 7.92C128.226 7.92 129.566 9.18 129.766 10.96H122.966C123.166 9.16 124.526 7.92 126.366 7.92ZM143.51 17.16C147.21 17.16 148.93 15.32 148.93 13.18C148.93 8.04 140.45 10.18 140.45 6.76C140.45 5.54 141.47 4.54 143.85 4.54C145.09 4.54 146.47 4.9 147.69 5.68L148.35 4.08C147.19 3.28 145.49 2.84 143.85 2.84C140.17 2.84 138.49 4.68 138.49 6.84C138.49 12.04 146.97 9.88 146.97 13.3C146.97 14.52 145.93 15.46 143.51 15.46C141.71 15.46 139.93 14.78 138.89 13.84L138.15 15.4C139.27 16.44 141.37 17.16 143.51 17.16ZM156.685 15C156.285 15.32 155.745 15.5 155.185 15.5C154.125 15.5 153.525 14.86 153.525 13.72V7.98H156.565V6.4H153.525V4.08H151.605V6.4H149.805V7.98H151.605V13.8C151.605 15.94 152.825 17.12 154.965 17.12C155.825 17.12 156.705 16.88 157.285 16.38L156.685 15ZM167.319 6.4V11.88C167.319 14.16 166.039 15.4 164.039 15.4C162.219 15.4 161.179 14.36 161.179 12.28V6.4H159.259V12.5C159.259 15.62 161.079 17.12 163.819 17.12C165.319 17.12 166.639 16.5 167.419 15.4V17H169.239V6.4H167.319ZM180.728 2.16V8C179.848 6.86 178.528 6.3 177.028 6.3C173.928 6.3 171.668 8.46 171.668 11.7C171.668 14.94 173.928 17.12 177.028 17.12C178.588 17.12 179.948 16.52 180.808 15.32V17H182.648V2.16H180.728ZM177.188 15.44C175.148 15.44 173.608 13.96 173.608 11.7C173.608 9.44 175.148 7.98 177.188 7.98C179.208 7.98 180.748 9.44 180.748 11.7C180.748 13.96 179.208 15.44 177.188 15.44ZM186.994 4.36C187.754 4.36 188.294 3.8 188.294 3.08C188.294 2.4 187.734 1.86 186.994 1.86C186.254 1.86 185.694 2.42 185.694 3.12C185.694 3.82 186.254 4.36 186.994 4.36ZM186.034 17H187.954V6.4H186.034V17ZM195.913 17.12C199.093 17.12 201.413 14.86 201.413 11.7C201.413 8.54 199.093 6.3 195.913 6.3C192.733 6.3 190.393 8.54 190.393 11.7C190.393 14.86 192.733 17.12 195.913 17.12ZM195.913 15.44C193.873 15.44 192.333 13.96 192.333 11.7C192.333 9.44 193.873 7.98 195.913 7.98C197.953 7.98 199.473 9.44 199.473 11.7C199.473 13.96 197.953 15.44 195.913 15.44Z" fill="#FC4308"/>
</svg>
